<?xml version="1.0" encoding="utf-8"?>
<!-- Generator: Adobe Illustrator 22.1.0, SVG Export Plug-In . SVG Version: 6.00 Build 0)  -->
<svg version="1.1" id="Layer_2_1_" xmlns="http://www.w3.org/2000/svg" xmlns:xlink="http://www.w3.org/1999/xlink" x="0px" y="0px"
	 viewBox="0 0 199.5 231.3" style="enable-background:new 0 0 199.5 231.3;" xml:space="preserve">
<style type="text/css">
	.st0{fill:#A8A8A8;}
	.st1{fill:#2EB2FF;}
	.st2{fill:#99E265;}
	.st3{fill:#79C636;}
	.st4{fill:#FFBD4A;}
	.st5{fill:#FF9D00;}
	.st6{fill:#FF5C5C;}
	.st7{fill:#ED3535;}
	.st8{fill:#545454;stroke:#545454;}
</style>
<g>
	<g>
		<rect x="62.8" y="99.8" transform="matrix(0.5 -0.866 0.866 0.5 -46.7685 123.3202)" class="st0" width="41.2" height="4.8"/>
		
			<rect x="112.8" y="60.7" transform="matrix(0.9634 -0.268 0.268 0.9634 -12.0331 38.0624)" class="st0" width="41.2" height="4.8"/>
		
			<rect x="74.5" y="26.9" transform="matrix(0.7071 -0.7071 0.7071 0.7071 -11.0894 68.2933)" class="st0" width="4.8" height="41.2"/>
		<circle class="st1" cx="100.8" cy="72.1" r="24.3"/>
		<path class="st2" d="M63.8,0.5C57.9,2,54.5,6.8,53.2,12.6c-4-4.4-9.4-6.9-15.2-5.3c-8.6,2.2-12.9,11-10.6,19.6
			c2.5,9.7,12.1,14.3,26.6,21.2c7.6,3.7,8.3,4.1,9.8,4.8c0.9-1.4,1.3-2,6.2-9C79.2,30.7,85.3,22,82.7,12.4
			C80.3,3.8,72.3-1.7,63.8,0.5L63.8,0.5z"/>
	</g>
	<path class="st3" d="M82.6,12.4c2.5,9.7-3.5,18.4-12.7,31.5c-4.9,6.9-5.2,7.6-6.2,9L53.2,12.6C54.5,6.8,57.9,2,63.8,0.5
		C72.3-1.7,80.3,3.8,82.6,12.4z"/>
</g>
<g>
	<g>
		<path class="st4" d="M164.7,50.3c-2.8-1.5-5.8-0.8-8.3,1c0-3.1-1.2-5.9-4-7.4c-4.1-2.1-8.8-0.2-10.9,3.9
			c-2.4,4.6-0.3,9.7,2.9,17.5c1.7,4.1,1.8,4.5,2.1,5.3c0.8-0.2,1.2-0.3,5.5-1.3c8.1-1.9,13.5-3.1,15.9-7.8
			C169.9,57.4,168.7,52.4,164.7,50.3L164.7,50.3z"/>
	</g>
	<path class="st5" d="M167.8,61.5c-2.4,4.6-7.8,5.9-15.9,7.8c-4.3,1-4.7,1.1-5.5,1.3l10-19.3c2.6-1.8,5.5-2.4,8.3-1
		C168.7,52.4,169.9,57.4,167.8,61.5z"/>
</g>
<g>
	<g>
		<path class="st6" d="M66.4,100.8c-6.6-0.9-12.2,3.9-13,10.4c-1,7.3,4.5,13.1,12.7,21.9c4.4,4.6,4.7,5.1,5.5,6c1-0.6,1.5-1,6.9-4.4
			c10.2-6.4,17-10.6,18-17.9c0.9-6.5-3.3-12.5-9.9-13.4c-4.6-0.6-8.4,1.7-11,5.3C74,104.6,71,101.4,66.4,100.8L66.4,100.8z"/>
	</g>
	<path class="st7" d="M66.3,100.8c4.6,0.6,7.6,3.8,9.2,7.9l-4,30.4c-0.8-0.9-1.2-1.3-5.5-6c-8.2-8.8-13.7-14.6-12.7-21.9
		C54.1,104.6,59.7,99.9,66.3,100.8z"/>
</g>
<path class="st8" d="M30.1,134.4v1H8.1V153h19.8v1H8.1v17.9h22.7v1H7v-38.6H30.1z M66.8,158.5H48.5L42.7,173h-1.1l16-40.4h0.1
	l16,40.4h-1.2L66.8,158.5z M66.4,157.5l-8.7-22.3l-8.9,22.3H66.4z M108.7,172.7c-2.1,0.5-4.1,0.8-6,0.8c-3.9,0-7.3-0.9-10.3-2.6
	c-3-1.7-5.3-4.1-6.9-7.1c-1.6-3-2.4-6.3-2.4-9.9s0.9-7,2.7-10c1.8-3,4.2-5.4,7.2-7.2c3-1.8,6.3-2.7,9.8-2.7c3.6,0,7,0.9,10.2,2.8
	l-0.6,0.9c-1.4-0.8-2.9-1.5-4.6-2c-1.7-0.5-3.3-0.7-5-0.7c-3.4,0-6.5,0.8-9.4,2.5c-2.9,1.7-5.1,4-6.8,6.8c-1.7,2.9-2.5,6-2.5,9.4
	c0,3.4,0.8,6.6,2.3,9.4c1.5,2.8,3.7,5.1,6.5,6.7s6,2.5,9.7,2.5c1.8,0,3.6-0.2,5.5-0.7c1.9-0.4,3.5-1,4.8-1.8v-12.6h-9.4v-1H114v14.4
	C112.6,171.5,110.8,172.1,108.7,172.7z M130,134.4v37.6h22.1v1h-23.2v-38.6H130z M187.4,134.4v1h-21.9V153h19.8v1h-19.8v17.9h22.7v1
	h-23.8v-38.6H187.4z M30.1,134.4v1H8.1V153h19.8v1H8.1v17.9h22.7v1H7v-38.6H30.1z M66.8,158.5H48.5L42.7,173h-1.1l16-40.4h0.1
	l16,40.4h-1.2L66.8,158.5z M66.4,157.5l-8.7-22.3l-8.9,22.3H66.4z M108.7,172.7c-2.1,0.5-4.1,0.8-6,0.8c-3.9,0-7.3-0.9-10.3-2.6
	c-3-1.7-5.3-4.1-6.9-7.1c-1.6-3-2.4-6.3-2.4-9.9s0.9-7,2.7-10c1.8-3,4.2-5.4,7.2-7.2c3-1.8,6.3-2.7,9.8-2.7c3.6,0,7,0.9,10.2,2.8
	l-0.6,0.9c-1.4-0.8-2.9-1.5-4.6-2c-1.7-0.5-3.3-0.7-5-0.7c-3.4,0-6.5,0.8-9.4,2.5c-2.9,1.7-5.1,4-6.8,6.8c-1.7,2.9-2.5,6-2.5,9.4
	c0,3.4,0.8,6.6,2.3,9.4c1.5,2.8,3.7,5.1,6.5,6.7s6,2.5,9.7,2.5c1.8,0,3.6-0.2,5.5-0.7c1.9-0.4,3.5-1,4.8-1.8v-12.6h-9.4v-1H114v14.4
	C112.6,171.5,110.8,172.1,108.7,172.7z M130,134.4v37.6h22.1v1h-23.2v-38.6H130z M187.4,134.4v1h-21.9V153h19.8v1h-19.8v17.9h22.7v1
	h-23.8v-38.6H187.4z M33.2,203.5H14.8L9.1,218H8l16-40.4h0.1l16,40.4h-1.2L33.2,203.5z M32.8,202.5L24,180.3l-8.9,22.3H32.8z
	 M66.8,180.7c-1.6-0.4-3.2-0.6-4.8-0.6c-1.8,0-3.5,0.3-4.9,1c-1.4,0.7-2.5,1.6-3.3,2.7s-1.2,2.4-1.2,3.8c0,1.5,0.4,2.8,1.3,3.9
	s2,1.9,3.3,2.6c1.3,0.7,3.1,1.4,5.2,2.2c2.3,0.8,4.2,1.7,5.6,2.5c1.5,0.8,2.7,1.9,3.7,3.4c1,1.4,1.5,3.2,1.5,5.4
	c0,2.2-0.5,4.1-1.5,5.7c-1,1.6-2.4,2.9-4.2,3.8c-1.8,0.9-3.8,1.3-6,1.3c-1.9,0-3.6-0.2-5.2-0.7c-1.6-0.5-2.7-0.9-3.4-1.3
	c-0.7-0.4-1.8-1-3.3-1.9l0.5-1c1.4,1,3.1,1.9,5.1,2.7c2,0.8,4,1.2,6,1.2c1.9,0,3.6-0.4,5.3-1.1c1.6-0.7,3-1.8,4-3.3
	c1-1.5,1.5-3.3,1.5-5.4c0-2-0.5-3.7-1.4-5c-1-1.3-2.1-2.4-3.6-3.1c-1.4-0.8-3.3-1.6-5.5-2.4c-2.2-0.8-4-1.6-5.4-2.3
	c-1.4-0.7-2.5-1.6-3.5-2.8s-1.4-2.6-1.4-4.3c0-1.7,0.5-3.2,1.4-4.5c0.9-1.3,2.2-2.3,3.7-3.1c1.6-0.7,3.3-1.1,5.2-1.1
	c1.4,0,3.1,0.2,4.9,0.6s3.4,0.9,4.7,1.5l-0.4,0.8C69.8,181.6,68.4,181.1,66.8,180.7z M100,180.7c-1.6-0.4-3.2-0.6-4.8-0.6
	c-1.8,0-3.5,0.3-4.9,1c-1.4,0.7-2.5,1.6-3.3,2.7s-1.2,2.4-1.2,3.8c0,1.5,0.4,2.8,1.3,3.9s2,1.9,3.3,2.6c1.3,0.7,3.1,1.4,5.2,2.2
	c2.3,0.8,4.2,1.7,5.6,2.5c1.5,0.8,2.7,1.9,3.7,3.4c1,1.4,1.5,3.2,1.5,5.4c0,2.2-0.5,4.1-1.5,5.7c-1,1.6-2.4,2.9-4.2,3.8
	s-3.8,1.3-6,1.3c-1.9,0-3.6-0.2-5.2-0.7c-1.6-0.5-2.7-0.9-3.4-1.3c-0.7-0.4-1.8-1-3.3-1.9l0.5-1c1.4,1,3.1,1.9,5.1,2.7
	c2,0.8,4,1.2,6,1.2c1.9,0,3.6-0.4,5.3-1.1c1.6-0.7,3-1.8,4-3.3s1.5-3.3,1.5-5.4c0-2-0.5-3.7-1.4-5c-1-1.3-2.1-2.4-3.6-3.1
	c-1.4-0.8-3.3-1.6-5.5-2.4c-2.2-0.8-4-1.6-5.4-2.3c-1.4-0.7-2.5-1.6-3.5-2.8s-1.4-2.6-1.4-4.3c0-1.7,0.5-3.2,1.4-4.5
	c0.9-1.3,2.2-2.3,3.7-3.1c1.6-0.7,3.3-1.1,5.2-1.1c1.4,0,3.1,0.2,4.9,0.6c1.9,0.4,3.4,0.9,4.7,1.5l-0.4,0.8
	C103.1,181.6,101.6,181.1,100,180.7z M120.7,179.4V218h-1.1v-38.6H120.7z M150.5,180.7c-1.6-0.4-3.2-0.6-4.8-0.6
	c-1.8,0-3.5,0.3-4.9,1s-2.5,1.6-3.3,2.7c-0.8,1.2-1.2,2.4-1.2,3.8c0,1.5,0.4,2.8,1.3,3.9s2,1.9,3.3,2.6c1.3,0.7,3.1,1.4,5.2,2.2
	c2.3,0.8,4.2,1.7,5.6,2.5c1.5,0.8,2.7,1.9,3.7,3.4c1,1.4,1.5,3.2,1.5,5.4c0,2.2-0.5,4.1-1.5,5.7c-1,1.6-2.4,2.9-4.2,3.8
	s-3.8,1.3-6,1.3c-1.9,0-3.6-0.2-5.2-0.7c-1.6-0.5-2.7-0.9-3.4-1.3c-0.7-0.4-1.8-1-3.3-1.9l0.5-1c1.4,1,3.1,1.9,5.1,2.7
	c2,0.8,4,1.2,6,1.2c1.9,0,3.6-0.4,5.3-1.1c1.6-0.7,3-1.8,4-3.3s1.5-3.3,1.5-5.4c0-2-0.5-3.7-1.4-5c-1-1.3-2.1-2.4-3.6-3.1
	c-1.4-0.8-3.3-1.6-5.5-2.4c-2.2-0.8-4-1.6-5.4-2.3c-1.4-0.7-2.5-1.6-3.5-2.8c-0.9-1.2-1.4-2.6-1.4-4.3c0-1.7,0.5-3.2,1.4-4.5
	c0.9-1.3,2.2-2.3,3.7-3.1c1.6-0.7,3.3-1.1,5.2-1.1c1.4,0,3.1,0.2,4.9,0.6s3.4,0.9,4.7,1.5l-0.4,0.8
	C153.5,181.6,152.1,181.1,150.5,180.7z M191.1,179.4v1h-12V218H178v-37.6h-12v-1H191.1z M33.2,203.5H14.8L9.1,218H8l16-40.4h0.1
	l16,40.4h-1.2L33.2,203.5z M32.8,202.5L24,180.3l-8.9,22.3H32.8z M66.8,180.7c-1.6-0.4-3.2-0.6-4.8-0.6c-1.8,0-3.5,0.3-4.9,1
	c-1.4,0.7-2.5,1.6-3.3,2.7s-1.2,2.4-1.2,3.8c0,1.5,0.4,2.8,1.3,3.9s2,1.9,3.3,2.6c1.3,0.7,3.1,1.4,5.2,2.2c2.3,0.8,4.2,1.7,5.6,2.5
	c1.5,0.8,2.7,1.9,3.7,3.4c1,1.4,1.5,3.2,1.5,5.4c0,2.2-0.5,4.1-1.5,5.7c-1,1.6-2.4,2.9-4.2,3.8c-1.8,0.9-3.8,1.3-6,1.3
	c-1.9,0-3.6-0.2-5.2-0.7c-1.6-0.5-2.7-0.9-3.4-1.3c-0.7-0.4-1.8-1-3.3-1.9l0.5-1c1.4,1,3.1,1.9,5.1,2.7c2,0.8,4,1.2,6,1.2
	c1.9,0,3.6-0.4,5.3-1.1c1.6-0.7,3-1.8,4-3.3c1-1.5,1.5-3.3,1.5-5.4c0-2-0.5-3.7-1.4-5c-1-1.3-2.1-2.4-3.6-3.1
	c-1.4-0.8-3.3-1.6-5.5-2.4c-2.2-0.8-4-1.6-5.4-2.3c-1.4-0.7-2.5-1.6-3.5-2.8s-1.4-2.6-1.4-4.3c0-1.7,0.5-3.2,1.4-4.5
	c0.9-1.3,2.2-2.3,3.7-3.1c1.6-0.7,3.3-1.1,5.2-1.1c1.4,0,3.1,0.2,4.9,0.6s3.4,0.9,4.7,1.5l-0.4,0.8
	C69.8,181.6,68.4,181.1,66.8,180.7z M100,180.7c-1.6-0.4-3.2-0.6-4.8-0.6c-1.8,0-3.5,0.3-4.9,1c-1.4,0.7-2.5,1.6-3.3,2.7
	s-1.2,2.4-1.2,3.8c0,1.5,0.4,2.8,1.3,3.9s2,1.9,3.3,2.6c1.3,0.7,3.1,1.4,5.2,2.2c2.3,0.8,4.2,1.7,5.6,2.5c1.5,0.8,2.7,1.9,3.7,3.4
	c1,1.4,1.5,3.2,1.5,5.4c0,2.2-0.5,4.1-1.5,5.7c-1,1.6-2.4,2.9-4.2,3.8s-3.8,1.3-6,1.3c-1.9,0-3.6-0.2-5.2-0.7
	c-1.6-0.5-2.7-0.9-3.4-1.3c-0.7-0.4-1.8-1-3.3-1.9l0.5-1c1.4,1,3.1,1.9,5.1,2.7c2,0.8,4,1.2,6,1.2c1.9,0,3.6-0.4,5.3-1.1
	c1.6-0.7,3-1.8,4-3.3s1.5-3.3,1.5-5.4c0-2-0.5-3.7-1.4-5c-1-1.3-2.1-2.4-3.6-3.1c-1.4-0.8-3.3-1.6-5.5-2.4c-2.2-0.8-4-1.6-5.4-2.3
	c-1.4-0.7-2.5-1.6-3.5-2.8s-1.4-2.6-1.4-4.3c0-1.7,0.5-3.2,1.4-4.5c0.9-1.3,2.2-2.3,3.7-3.1c1.6-0.7,3.3-1.1,5.2-1.1
	c1.4,0,3.1,0.2,4.9,0.6c1.9,0.4,3.4,0.9,4.7,1.5l-0.4,0.8C103.1,181.6,101.6,181.1,100,180.7z M120.7,179.4V218h-1.1v-38.6H120.7z
	 M150.5,180.7c-1.6-0.4-3.2-0.6-4.8-0.6c-1.8,0-3.5,0.3-4.9,1s-2.5,1.6-3.3,2.7c-0.8,1.2-1.2,2.4-1.2,3.8c0,1.5,0.4,2.8,1.3,3.9
	s2,1.9,3.3,2.6c1.3,0.7,3.1,1.4,5.2,2.2c2.3,0.8,4.2,1.7,5.6,2.5c1.5,0.8,2.7,1.9,3.7,3.4c1,1.4,1.5,3.2,1.5,5.4
	c0,2.2-0.5,4.1-1.5,5.7c-1,1.6-2.4,2.9-4.2,3.8s-3.8,1.3-6,1.3c-1.9,0-3.6-0.2-5.2-0.7c-1.6-0.5-2.7-0.9-3.4-1.3
	c-0.7-0.4-1.8-1-3.3-1.9l0.5-1c1.4,1,3.1,1.9,5.1,2.7c2,0.8,4,1.2,6,1.2c1.9,0,3.6-0.4,5.3-1.1c1.6-0.7,3-1.8,4-3.3s1.5-3.3,1.5-5.4
	c0-2-0.5-3.7-1.4-5c-1-1.3-2.1-2.4-3.6-3.1c-1.4-0.8-3.3-1.6-5.5-2.4c-2.2-0.8-4-1.6-5.4-2.3c-1.4-0.7-2.5-1.6-3.5-2.8
	c-0.9-1.2-1.4-2.6-1.4-4.3c0-1.7,0.5-3.2,1.4-4.5c0.9-1.3,2.2-2.3,3.7-3.1c1.6-0.7,3.3-1.1,5.2-1.1c1.4,0,3.1,0.2,4.9,0.6
	s3.4,0.9,4.7,1.5l-0.4,0.8C153.5,181.6,152.1,181.1,150.5,180.7z M191.1,179.4v1h-12V218H178v-37.6h-12v-1H191.1z"/>
</svg>
